<svg width="24" height="24" viewBox="0 0 24 24" fill="none" xmlns="http://www.w3.org/2000/svg">
<path d="M20.5 21L20.5 3M15.5 19.5L9.5 19.5C8.39543 19.5 7.5 18.6046 7.5 17.5L7.5 15.5C7.5 14.3954 8.39543 13.5 9.5 13.5L15.5 13.5C16.6046 13.5 17.5 14.3954 17.5 15.5V17.5C17.5 18.6046 16.6046 19.5 15.5 19.5ZM15.5 10.5L5.5 10.5C4.39543 10.5 3.5 9.60457 3.5 8.5L3.5 6.5C3.5 5.39543 4.39543 4.5 5.5 4.5L15.5 4.5C16.6046 4.5 17.5 5.39543 17.5 6.5L17.5 8.5C17.5 9.60457 16.6046 10.5 15.5 10.5Z" stroke="#363538" stroke-width="1.5" stroke-linecap="round" stroke-linejoin="round"/>
</svg>
